<svg width="32" height="28" viewBox="0 0 32 28" fill="none" xmlns="http://www.w3.org/2000/svg">
<path fill-rule="evenodd" clip-rule="evenodd" d="M28.8269 2.98592C24.8233 1.07471 20.2589 0 15.4944 0C10.73 0 6.16587 1.07471 2.16227 3.02557C0.760519 6.36994 0 10.0724 0 13.8945C0 17.7563 0.760849 21.4188 2.16227 24.8028C6.16587 26.7137 10.73 27.8284 15.4944 27.8284C20.2589 27.8284 24.8233 26.7137 28.8269 24.8028C30.2287 21.4591 31.0294 17.7566 31.0294 13.8945C31.0291 10.0724 30.2287 6.36994 28.8269 2.98592Z" fill="#357C2B"/>
<path fill-rule="evenodd" clip-rule="evenodd" d="M27.8666 3.82134C24.1434 2.10967 19.899 1.11426 15.495 1.11426C11.091 1.11426 6.8469 2.10967 3.12339 3.82134C1.88244 6.96683 1.20166 10.3505 1.20166 13.8938C1.20166 17.437 1.88211 20.8607 3.12339 23.9662C6.8469 25.7179 11.091 26.6733 15.495 26.6733C19.899 26.6733 24.1833 25.7179 27.8666 23.9662C29.1474 20.8607 29.8282 17.477 29.8282 13.8938C29.8282 10.3505 29.1079 6.9665 27.8666 3.82134Z" fill="#FFDE02"/>
<path d="M9.89115 15.0477C10.0915 13.4153 10.5317 11.9821 11.1723 10.6682C11.2926 10.5093 11.0926 10.4697 11.0926 10.4697C10.5719 10.3501 9.2107 10.0712 9.2107 10.0712L9.01068 9.51389C10.3719 8.9962 12.0534 8.55845 13.1342 8.31959C13.294 8.08073 13.3744 7.84154 13.3744 7.68263C13.3744 7.52339 13.3342 7.4038 13.2143 7.28453C12.6937 6.64757 10.6118 6.84646 8.36978 7.68263L8.32958 7.64266C8.69007 7.32385 9.33097 6.96572 9.85095 6.72686C9.6908 6.04993 8.81001 5.77142 8.81001 5.77142V5.69147C9.57086 5.77109 10.1314 6.08957 10.4118 6.48767C11.0125 6.32843 11.2926 6.24881 11.773 6.20916C11.7331 5.21375 10.7321 4.49684 10.7321 4.49684L10.7723 4.45719C11.6933 4.77568 12.3737 5.41264 12.6136 6.20916C13.0542 6.20916 13.2944 6.24881 13.6947 6.36808C13.815 6.08957 13.8549 5.77109 13.8549 5.49226C13.8549 4.53681 13.2146 3.82023 13.1744 3.78059L13.2548 3.74061C14.416 4.33793 14.6961 5.33302 14.6961 6.24881C14.6961 7.08499 14.4559 7.84121 14.3758 8.04043C14.3758 8.04043 15.6969 7.8019 16.6976 7.6823C16.6577 7.7616 16.2175 8.35891 15.0164 8.99587L14.0552 8.87661C13.9752 9.11514 13.4146 10.8671 13.4146 12.1807C13.4146 12.6188 13.5346 13.0169 13.815 13.2557C14.2954 13.6938 15.0962 13.7334 15.6168 13.7334C19.4204 13.5742 21.0617 14.0919 21.3022 14.2112C21.3421 14.1315 21.382 13.9327 21.382 13.6541C21.382 13.0965 21.2218 12.2207 20.3407 11.1459L20.3812 11.106C20.4211 11.106 22.6631 12.3003 22.9432 14.1712L21.9425 14.5696C22.8236 15.4851 23.1432 16.6001 23.3834 17.5156C23.5841 18.1528 23.7436 18.7099 24.0642 18.9887C24.4646 19.3472 26.0663 20.1833 26.1062 20.1833C26.1062 20.1833 26.5863 20.7803 27.7472 22.7711C28.7571 19.919 29.2716 16.9168 29.2686 13.893C29.2686 10.5886 28.6283 7.32418 27.4272 4.21899C23.7838 2.54696 19.6599 1.67114 15.4959 1.67114C11.372 1.67114 7.24811 2.54664 3.5648 4.21899C2.36372 7.32385 1.72314 10.5886 1.72314 13.893C1.72314 17.2371 2.36372 20.5018 3.5648 23.607C7.24811 25.279 11.372 26.1545 15.4959 26.1545C19.6201 26.1545 23.7433 25.2793 27.4272 23.607C26.6269 22.1735 25.3852 20.8999 25.3055 20.8599C25.1454 20.82 21.9023 19.8249 20.7813 19.2675C19.8603 18.7898 18.9393 17.6751 18.8197 17.5555C17.9385 17.4762 17.0574 17.4762 16.1364 17.5955C14.9756 17.7551 13.7343 17.954 12.5332 17.7551C11.8527 17.6751 11.172 17.4366 10.4513 17.2374C9.41039 16.8789 8.28938 16.5208 7.0481 16.5208C7.20824 16.8393 8.28938 18.8298 9.81075 19.3075C9.81075 19.3075 10.2912 19.4271 10.4513 19.5464L11.0919 20.7806C11.0919 20.7806 7.689 19.1086 5.44666 16.3616L5.36659 15.8439C6.72713 15.3269 8.12715 15.2074 9.52753 15.0879L9.53066 15.0876C9.53066 15.0876 9.85095 15.0477 9.89115 15.0477Z" fill="#357C2B"/>
</svg>
